<!-- <svg xmlns="http://www.w3.org/2000/svg" viewBox="0 0 24 24" fill="none">
  <path d="M12 2C6.48 2 2 6.48 2 12s4.48 10 10 10 10-4.48 10-10S17.52 2 12 2z" fill="#00D4AA"/>
  <path d="M12 6c-3.31 0-6 2.69-6 6s2.69 6 6 6 6-2.69 6-6-2.69-6-6-6zm0 10c-2.21 0-4-1.79-4-4s1.79-4 4-4 4 1.79 4 4-1.79 4-4 4z" fill="#fff"/>
  <path d="M12 8c-2.21 0-4 1.79-4 4s1.79 4 4 4 4-1.79 4-4-1.79-4-4-4z" fill="#00D4AA"/>
</svg> -->

<svg stroke="currentColor" fill="#05df72" stroke-width="0" 
viewBox="0 0 24 24" class="text-green-400" height="36" width="36"
 xmlns="http://www.w3.org/2000/svg"><path d="M12 1L20.2169 2.82598C20.6745 2.92766 21 3.33347 21 3.80217V13.7889C21 15.795 19.9974 17.6684 
 18.3282 18.7812L12 23L5.6718 18.7812C4.00261 17.6684 3 15.795 3 13.7889V3.80217C3 3.33347 3.32553 2.92766 3.78307 2.82598L12 1ZM12 7C10.8954 
 7 10 7.89543 10 9C10 9.74025 10.4022 10.3866 10.9999 10.7324L11 15H13L13.0011 10.7318C13.5983 10.3858 14 9.73984 14 9C14 7.89543 13.1046 7 12 7Z"></path></svg>